<svg width="154" height="317" viewBox="0 0 154 317" fill="none" xmlns="http://www.w3.org/2000/svg">
<mask id="path-1-inside-1_317_18" fill="white">
<path fill-rule="evenodd" clip-rule="evenodd" d="M72.9425 113.295C79.8265 125.719 83.746 140.014 83.746 155.224C83.746 172.197 78.8653 188.03 70.4308 201.396L126.192 241.692C143.636 217.555 153.189 188.614 153.543 158.835C153.898 129.057 145.036 99.8967 128.173 75.3506L72.9425 113.295Z"/>
</mask>
<path d="M72.9425 113.295L71.8099 111.647L70.3126 112.675L71.1931 114.264L72.9425 113.295ZM70.4308 201.396L68.7394 200.328L67.7371 201.917L69.2594 203.017L70.4308 201.396ZM126.192 241.692L125.021 243.313L126.642 244.485L127.813 242.864L126.192 241.692ZM153.543 158.835L151.544 158.811L151.544 158.811L153.543 158.835ZM128.173 75.3506L129.821 74.2181L128.689 72.5696L127.04 73.7021L128.173 75.3506ZM71.1931 114.264C77.917 126.399 81.746 140.361 81.746 155.224L85.746 155.224C85.746 139.666 81.7361 125.039 74.6919 112.326L71.1931 114.264ZM81.746 155.224C81.746 171.808 76.9783 187.272 68.7394 200.328L72.1222 202.463C80.7524 188.787 85.746 172.585 85.746 155.224L81.746 155.224ZM69.2594 203.017L125.021 243.313L127.364 240.071L71.6023 199.775L69.2594 203.017ZM127.813 242.864C145.498 218.392 155.184 189.05 155.543 158.859L151.544 158.811C151.194 188.178 141.773 216.718 124.571 240.521L127.813 242.864ZM155.543 158.859C155.903 128.668 146.918 99.1041 129.821 74.2181L126.524 76.4831C143.154 100.689 151.893 129.445 151.544 158.811L155.543 158.859ZM127.04 73.7021L71.8099 111.647L74.075 114.943L129.305 76.999L127.04 73.7021Z" fill="white" mask="url(#path-1-inside-1_317_18)"/>
<mask id="path-3-inside-2_317_18" fill="white">
<path fill-rule="evenodd" clip-rule="evenodd" d="M62.5099 99.8566C47.4016 82.1454 25.2834 70.5957 0.448956 69.5011L0.448959 0.550776C23.2361 0.550777 45.6998 5.94382 66.0033 16.289C86.3068 26.6341 103.874 41.6376 117.268 60.0728L62.5099 99.8566Z"/>
</mask>
<path d="M0.448956 69.5011L-1.55104 69.5011L-1.55104 71.4148L0.360885 71.4991L0.448956 69.5011ZM62.5099 99.8566L60.9884 101.155L62.1889 102.562L63.6855 101.475L62.5099 99.8566ZM0.448959 0.550776L0.448959 -1.44922L-1.55104 -1.44922L-1.55104 0.550776L0.448959 0.550776ZM66.0033 16.289L65.0953 18.071L65.0953 18.071L66.0033 16.289ZM117.268 60.0728L118.443 61.6909L120.061 60.5153L118.886 58.8973L117.268 60.0728ZM0.360885 71.4991C24.6192 72.5684 46.2256 83.8485 60.9884 101.155L64.0315 98.5586C48.5776 80.4423 25.9476 68.623 0.537027 67.503L0.360885 71.4991ZM2.44896 69.5011L2.44896 0.550776L-1.55104 0.550776L-1.55104 69.5011L2.44896 69.5011ZM0.448959 2.55078C22.9205 2.55078 45.073 7.86912 65.0953 18.071L66.9112 14.507C46.3265 4.01852 23.5517 -1.44922 0.448959 -1.44922L0.448959 2.55078ZM65.0953 18.071C85.1176 28.2728 102.441 43.0686 115.65 61.2484L118.886 58.8973C105.306 40.2067 87.496 24.9954 66.9112 14.507L65.0953 18.071ZM116.092 58.4548L61.3344 98.2386L63.6855 101.475L118.443 61.6909L116.092 58.4548Z" fill="white" mask="url(#path-3-inside-2_317_18)"/>
<mask id="path-5-inside-3_317_18" fill="white">
<path fill-rule="evenodd" clip-rule="evenodd" d="M0.448958 242.602L0.448955 316.554C23.2361 316.554 45.6998 311.161 66.0033 300.815C86.3068 290.47 103.874 275.467 117.268 257.032L59.7991 215.278C44.8154 231.268 23.8367 241.571 0.448958 242.602Z"/>
</mask>
<path d="M0.448958 242.602L0.360901 240.604L-1.55104 240.688L-1.55104 242.602L0.448958 242.602ZM0.448955 316.554L-1.55105 316.554L-1.55105 318.554L0.448955 318.554L0.448955 316.554ZM66.0033 300.815L65.0953 299.033L65.0953 299.033L66.0033 300.815ZM117.268 257.032L118.886 258.207L120.061 256.589L118.443 255.414L117.268 257.032ZM59.7991 215.278L60.9747 213.66L59.5467 212.623L58.3398 213.911L59.7991 215.278ZM-1.55104 242.602L-1.55105 316.554L2.44895 316.554L2.44896 242.602L-1.55104 242.602ZM0.448955 318.554C23.5517 318.554 46.3265 313.086 66.9112 302.597L65.0953 299.033C45.073 309.235 22.9205 314.554 0.448955 314.554L0.448955 318.554ZM66.9112 302.597C87.496 292.109 105.306 276.898 118.886 258.207L115.65 255.856C102.441 274.036 85.1176 288.832 65.0953 299.033L66.9112 302.597ZM118.443 255.414L60.9747 213.66L58.6236 216.896L116.092 258.65L118.443 255.414ZM58.3398 213.911C43.6992 229.534 23.2065 239.597 0.360901 240.604L0.537016 244.6C24.4669 243.545 45.9317 233.001 61.2585 216.646L58.3398 213.911Z" fill="white" mask="url(#path-5-inside-3_317_18)"/>
</svg>
