<svg width="2219" height="828" viewBox="0 0 2219 828" fill="none" xmlns="http://www.w3.org/2000/svg">
<g clip-path="url(#clip0_325_46)">
<path d="M-58.868 -436.302L-6.97257 17.6451C-4.58576 49.4937 -3.39277 67.6016 0.18623 72.5969C26.8299 107.564 98.4893 192.359 171.978 251.803C263.839 326.108 297.243 346.714 386.121 400.414C457.224 443.373 521.526 472.013 544.79 480.963C564.355 494.45 705.248 539.033 773.249 559.639C794.325 565.258 837.671 575.873 842.443 573.376C847.215 570.878 851.987 561.096 853.777 556.517C855.685 539.533 864.513 534.87 868.689 534.662H1277.89H1345.89C1348.87 535.287 1355.67 537.784 1359.01 542.78C1363.19 549.024 1357.82 547.15 1367.36 560.263C1375 570.753 1380.88 572.127 1382.87 571.503L1415.08 565.883C1511.95 553.395 1696.83 470.764 1777.16 431.01C1862.46 389.799 1944.77 324.235 1974.6 306.127C1998.46 291.641 2058.11 240.148 2084.95 216.212C2108.81 198.728 2179.99 119.844 2212.6 82.5876C2220.71 74.0955 2223.54 63.647 2223.94 59.4843L2226.92 22.0195L2251.37 -207.764C2257.34 -270.413 2270.46 -402.955 2275.23 -431.928C2280.01 -460.901 2261.32 -460.234 2251.37 -456.28L2192.92 -434.429C1933.44 -353.88 1589.86 -329.944 1391.22 -312.044C990.374 -275.922 490.508 -340.767 381.348 -354.504C294.021 -365.494 95.0296 -410.272 -5.18308 -444.421C-30.8325 -453.162 -61.2539 -471.266 -58.868 -436.302Z" stroke="#EC5151" stroke-width="2"/>
<path d="M906.391 597.188V578.766H907.938V597.188H906.391ZM912.719 597.188V578.766H914.266V597.188H912.719ZM919.047 597.188V578.766H920.594V597.188H919.047ZM925.375 597.188V578.766H926.922V597.188H925.375ZM931.703 597.188V578.766H933.25V597.188H931.703ZM938.031 597.188V578.766H939.578V597.188H938.031ZM944.359 597.188V578.766H945.906V597.188H944.359ZM950.688 597.188V578.766H952.234V597.188H950.688ZM957.016 597.188V578.766H958.562V597.188H957.016ZM963.344 597.188V578.766H964.891V597.188H963.344ZM969.672 597.188V578.766H971.219V597.188H969.672ZM976 597.188V578.766H977.547V597.188H976ZM982.328 597.188V578.766H983.875V597.188H982.328ZM988.656 597.188V578.766H990.203V597.188H988.656ZM994.984 597.188V578.766H996.531V597.188H994.984ZM1001.31 597.188V578.766H1002.86V597.188H1001.31ZM1007.64 597.188V578.766H1009.19V597.188H1007.64ZM1013.97 597.188V578.766H1015.52V597.188H1013.97ZM1020.3 597.188V578.766H1021.84V597.188H1020.3ZM1026.62 597.188V578.766H1028.17V597.188H1026.62ZM1032.95 597.188V578.766H1034.5V597.188H1032.95ZM1039.28 597.188V578.766H1040.83V597.188H1039.28ZM1045.61 597.188V578.766H1047.16V597.188H1045.61ZM1051.94 597.188V578.766H1053.48V597.188H1051.94ZM1058.27 597.188V578.766H1059.81V597.188H1058.27ZM1064.59 597.188V578.766H1066.14V597.188H1064.59ZM1070.92 597.188V578.766H1072.47V597.188H1070.92ZM1077.25 597.188V578.766H1078.8V597.188H1077.25ZM1083.58 597.188V578.766H1085.12V597.188H1083.58ZM1089.91 597.188V578.766H1091.45V597.188H1089.91ZM1096.23 597.188V578.766H1097.78V597.188H1096.23ZM1102.56 597.188V578.766H1104.11V597.188H1102.56ZM1108.89 597.188V578.766H1110.44V597.188H1108.89ZM1115.22 597.188V578.766H1116.77V597.188H1115.22ZM1121.55 597.188V578.766H1123.09V597.188H1121.55ZM1127.88 597.188V578.766H1129.42V597.188H1127.88ZM1134.2 597.188V578.766H1135.75V597.188H1134.2ZM1140.53 597.188V578.766H1142.08V597.188H1140.53ZM1146.86 597.188V578.766H1148.41V597.188H1146.86ZM1153.19 597.188V578.766H1154.73V597.188H1153.19ZM1159.52 597.188V578.766H1161.06V597.188H1159.52ZM1165.84 597.188V578.766H1167.39V597.188H1165.84ZM1172.17 597.188V578.766H1173.72V597.188H1172.17ZM1178.5 597.188V578.766H1180.05V597.188H1178.5ZM1184.83 597.188V578.766H1186.38V597.188H1184.83ZM1191.16 597.188V578.766H1192.7V597.188H1191.16ZM1197.48 597.188V578.766H1199.03V597.188H1197.48ZM1203.81 597.188V578.766H1205.36V597.188H1203.81ZM1210.14 597.188V578.766H1211.69V597.188H1210.14ZM1216.47 597.188V578.766H1218.02V597.188H1216.47ZM1222.8 597.188V578.766H1224.34V597.188H1222.8ZM1229.12 597.188V578.766H1230.67V597.188H1229.12ZM1235.45 597.188V578.766H1237V597.188H1235.45ZM1241.78 597.188V578.766H1243.33V597.188H1241.78ZM1248.11 597.188V578.766H1249.66V597.188H1248.11ZM1254.44 597.188V578.766H1255.98V597.188H1254.44ZM1260.77 597.188V578.766H1262.31V597.188H1260.77ZM1267.09 597.188V578.766H1268.64V597.188H1267.09ZM1273.42 597.188V578.766H1274.97V597.188H1273.42ZM1279.75 597.188V578.766H1281.3V597.188H1279.75ZM1286.08 597.188V578.766H1287.62V597.188H1286.08ZM1292.41 597.188V578.766H1293.95V597.188H1292.41ZM1298.73 597.188V578.766H1300.28V597.188H1298.73ZM1305.06 597.188V578.766H1306.61V597.188H1305.06ZM1311.39 597.188V578.766H1312.94V597.188H1311.39Z" fill="#EC5151"/>
</g>
<defs>
<clipPath id="clip0_325_46">
<rect width="2219" height="828" fill="white"/>
</clipPath>
</defs>
</svg>
