<svg width="2173" height="216" viewBox="0 0 2173 216" fill="none" xmlns="http://www.w3.org/2000/svg">
<path d="M-36.8712 20.3748L13.7797 421.097C16.1092 449.212 17.2736 465.197 20.7668 469.606C46.7714 500.473 116.712 575.327 188.438 627.801C278.096 693.394 310.699 711.584 397.446 758.987C466.843 796.91 529.604 822.191 552.309 830.092C571.405 841.998 708.919 881.354 775.289 899.543C795.86 904.504 838.166 913.875 842.824 911.67C847.481 909.465 852.139 900.829 853.885 896.787C855.749 881.795 864.365 877.679 868.44 877.495H1267.82H1334.2C1337.11 878.046 1343.74 880.251 1347 884.661C1351.08 890.173 1345.84 888.519 1355.15 900.094C1362.61 909.355 1368.35 910.567 1370.29 910.016L1401.73 905.055C1496.28 894.031 1676.72 821.089 1755.12 785.996C1838.37 749.617 1918.72 691.74 1947.83 675.756C1971.11 662.968 2029.33 617.512 2055.53 596.383C2078.82 580.949 2148.3 511.314 2180.12 478.425C2188.04 470.929 2190.8 461.706 2191.18 458.031L2194.09 424.959L2217.96 222.117C2223.79 166.813 2236.59 49.8117 2241.25 24.236C2245.91 -1.33977 2227.67 -0.751815 2217.96 2.73913L2160.91 22.0278C1907.65 93.1328 1572.31 114.262 1378.44 130.063C987.207 161.95 499.329 104.708 392.788 92.5816C307.554 82.8804 113.336 43.353 15.5262 13.2073C-9.50808 5.4915 -39.1998 -10.4899 -36.8712 20.3748Z" stroke="#EC5151" stroke-width="2"/>
</svg>
