<svg width="272" height="209" viewBox="0 0 272 209" fill="none" xmlns="http://www.w3.org/2000/svg">
<line y1="-1" x2="208.618" y2="-1" transform="matrix(4.37746e-08 1 1 -4.36485e-08 210.918 0)" stroke="white" stroke-opacity="0.9" stroke-width="2"/>
<path d="M243.494 85.5L243.494 208.618" stroke="white" stroke-opacity="0.9" stroke-width="2"/>
<path d="M270.355 76L270.355 208.618" stroke="white" stroke-opacity="0.9" stroke-width="2"/>
<line y1="-1" x2="208.618" y2="-1" transform="matrix(4.37746e-08 1 1 -4.36485e-08 181.072 0)" stroke="white" stroke-opacity="0.9" stroke-width="2"/>
<line y1="-1" x2="208.618" y2="-1" transform="matrix(4.37746e-08 1 1 -4.36485e-08 151.227 0)" stroke="white" stroke-opacity="0.9" stroke-width="2"/>
<line y1="-1" x2="208.618" y2="-1" transform="matrix(4.37746e-08 1 1 -4.36485e-08 121.381 0)" stroke="white" stroke-opacity="0.9" stroke-width="2"/>
<line y1="-1" x2="208.618" y2="-1" transform="matrix(4.37746e-08 1 1 -4.36485e-08 91.5352 0)" stroke="white" stroke-opacity="0.9" stroke-width="2"/>
<line y1="-1" x2="208.618" y2="-1" transform="matrix(4.37746e-08 1 1 -4.36485e-08 61.6895 0)" stroke="white" stroke-opacity="0.9" stroke-width="2"/>
<line y1="-1" x2="208.618" y2="-1" transform="matrix(4.37746e-08 1 1 -4.36485e-08 31.8457 0)" stroke="white" stroke-opacity="0.9" stroke-width="2"/>
<line y1="-1" x2="208.618" y2="-1" transform="matrix(4.37746e-08 1 1 -4.36485e-08 2 0)" stroke="white" stroke-opacity="0.9" stroke-width="2"/>
</svg>
