<svg width="195" height="118" viewBox="0 0 195 118" fill="none" xmlns="http://www.w3.org/2000/svg">
<rect x="42.5" y="31.5" width="109" height="54" stroke="white"/>
<rect x="53.5" y="36.5" width="88" height="44" stroke="white"/>
<circle cx="47" cy="59" r="2.6" stroke="white" stroke-width="0.8"/>
<path d="M188.559 34.8839L189.603 29.2055L184.163 31.1408L188.559 34.8839ZM152.753 1.48538C161.034 3.55607 168.639 7.73311 174.829 13.6108L175.518 12.8857C169.202 6.88919 161.444 2.62777 152.995 0.51525L152.753 1.48538ZM174.829 13.6108C179.939 18.4631 183.942 24.3383 186.588 30.8332L187.514 30.4559C184.815 23.8298 180.731 17.836 175.518 12.8857L174.829 13.6108Z" fill="white"/>
<path d="M5.87456 82.9999L4.83076 88.6783L10.2703 86.743L5.87456 82.9999ZM41.6808 116.398C33.3996 114.328 25.7946 110.151 19.6044 104.273L18.9158 104.998C25.2311 110.995 32.9897 115.256 41.4382 117.369L41.6808 116.398ZM19.6044 104.273C14.4942 99.4207 10.4915 93.5455 7.84586 87.0506L6.91975 87.4279C9.61884 94.054 13.7024 100.048 18.9158 104.998L19.6044 104.273Z" fill="white"/>
</svg>
