<svg width="1143" height="670" viewBox="0 0 1143 670" fill="none" xmlns="http://www.w3.org/2000/svg">
<line y1="-0.990363" x2="740.426" y2="-0.990363" transform="matrix(1 0 0 -1 396.508 234.422)" stroke="white" stroke-opacity="0.9" stroke-width="1.98073"/>
<line y1="-0.990363" x2="206.607" y2="-0.990363" transform="matrix(4.37746e-08 1 1 -4.36485e-08 751.566 235.717)" stroke="white" stroke-opacity="0.9" stroke-width="1.98073"/>
<path d="M783.82 320.393L783.82 442.324" stroke="white" stroke-opacity="0.9" stroke-width="1.98073"/>
<path d="M810.422 310.984L810.422 442.324" stroke="white" stroke-opacity="0.9" stroke-width="1.98073"/>
<line y1="-0.990363" x2="206.607" y2="-0.990363" transform="matrix(4.37746e-08 1 1 -4.36485e-08 722 235.717)" stroke="white" stroke-opacity="0.9" stroke-width="1.98073"/>
<line y1="-0.990363" x2="206.607" y2="-0.990363" transform="matrix(4.37746e-08 1 1 -4.36485e-08 692.449 235.717)" stroke="white" stroke-opacity="0.9" stroke-width="1.98073"/>
<line y1="-0.990363" x2="206.607" y2="-0.990363" transform="matrix(4.37746e-08 1 1 -4.36485e-08 662.887 235.717)" stroke="white" stroke-opacity="0.9" stroke-width="1.98073"/>
<line y1="-0.990363" x2="206.607" y2="-0.990363" transform="matrix(4.37746e-08 1 1 -4.36485e-08 633.328 235.717)" stroke="white" stroke-opacity="0.9" stroke-width="1.98073"/>
<line y1="-0.990363" x2="206.607" y2="-0.990363" transform="matrix(4.37746e-08 1 1 -4.36485e-08 603.773 235.717)" stroke="white" stroke-opacity="0.9" stroke-width="1.98073"/>
<line y1="-0.990363" x2="206.607" y2="-0.990363" transform="matrix(4.37746e-08 1 1 -4.36485e-08 574.219 235.717)" stroke="white" stroke-opacity="0.9" stroke-width="1.98073"/>
<line y1="-0.990363" x2="206.607" y2="-0.990363" transform="matrix(4.37746e-08 1 1 -4.36485e-08 544.656 235.717)" stroke="white" stroke-opacity="0.9" stroke-width="1.98073"/>
<line x1="496.184" y1="264.015" x2="783.389" y2="264.016" stroke="white" stroke-opacity="0.9" stroke-width="1.98073"/>
<line x1="496.184" y1="294.148" x2="797.254" y2="294.148" stroke="white" stroke-opacity="0.9" stroke-width="1.98073"/>
<line x1="496.184" y1="321.375" x2="784.379" y2="321.375" stroke="white" stroke-opacity="0.9" stroke-width="1.98073"/>
<path d="M544.707 355L810.124 355" stroke="white" stroke-opacity="0.9" stroke-width="1.98073"/>
<line x1="544.707" y1="382.689" x2="811.115" y2="382.689" stroke="white" stroke-opacity="0.9" stroke-width="1.98073"/>
<path d="M631.859 413.547L810.678 413.547" stroke="white" stroke-opacity="0.9" stroke-width="1.98073"/>
<path d="M692.447 442.703H1V669.001H669.495V574.421L810.621 441.713" stroke="white" stroke-width="1.98073"/>
<path d="M896.289 160.943L865.752 124.795C850.302 129.153 825.972 147.738 815.738 156.487C788.997 179.343 763.744 227.396 791.475 283.253C797.581 297.613 820.986 331.484 865.752 352.083L899.426 303.555" stroke="white" stroke-width="1.98073"/>
<path d="M1034.11 124.3C1049.56 128.658 1073.89 147.244 1084.12 155.992C1110.87 178.849 1136.12 226.902 1108.39 282.758C1102.28 297.118 1078.88 330.989 1034.11 351.588L1000.44 303.061M1034.11 124.3L1002.91 160.448M1034.11 124.3L1142.06 1" stroke="white" stroke-width="1.98073"/>
<path d="M1059.86 231.261C1059.86 253.296 1047.72 273.328 1027.92 287.887C1008.13 302.445 980.729 311.48 950.425 311.48C920.121 311.48 892.726 302.445 872.93 287.887C853.133 273.328 840.99 253.296 840.99 231.261C840.99 209.225 853.133 189.193 872.93 174.634C892.726 160.076 920.121 151.041 950.425 151.041C980.729 151.041 1008.13 160.076 1027.92 174.634C1047.72 189.193 1059.86 209.225 1059.86 231.261Z" stroke="white" stroke-width="1.98073"/>
<line x1="951.912" y1="108.467" x2="950.922" y2="188.687" stroke="white" stroke-width="1.98073"/>
<line x1="950.92" y1="271.876" x2="949.93" y2="352.095" stroke="white" stroke-width="1.98073"/>
<path d="M557.419 259.028C552.808 259.028 549.623 255.391 549.623 250.233C549.623 245.099 552.784 241.415 557.443 241.415C561.412 241.415 564.003 243.958 564.431 247.143H562.624C562.291 245.242 560.889 242.936 557.419 242.936C553.307 242.936 551.429 246.43 551.429 250.233C551.429 254.036 553.331 257.507 557.419 257.507C561.008 257.507 562.505 255.035 562.695 252.682H564.502C564.098 256.389 561.459 259.028 557.419 259.028Z" fill="white"/>
<path d="M589.344 289.418H586.515L580.526 272.423H583.402L587.918 286.661H587.942L592.434 272.423H595.191L589.344 289.418Z" fill="white"/>
<path d="M561.346 286.289H559.135V281.772H554.762V279.562H559.135V275.046H561.346V279.562H565.719V281.772H561.346V286.289Z" fill="white"/>
<path d="M584.662 317.15H582.047V300.156H589.13C592.885 300.156 594.906 301.915 594.906 305.052C594.906 307.215 593.599 308.784 591.721 309.212V309.259C595.666 309.996 594.217 316.699 595.144 316.984V317.15H592.339C591.578 316.437 593.194 310.495 589.035 310.495H584.662V317.15ZM584.662 308.237H588.56C590.96 308.237 592.267 307.191 592.267 305.242C592.267 303.412 591.222 302.414 588.607 302.414H584.662V308.237Z" fill="white"/>
<path d="M589.249 258.719H586.611V251.921L580.526 241.724H583.354L587.918 249.853H587.965L592.529 241.724H595.334L589.249 251.921V258.719Z" fill="white"/>
<path d="M619.333 289.418H616.719V272.423H619.333V289.418Z" fill="white"/>
<path d="M624.023 317.15H611.758V300.156H623.785V302.414H614.372V307.239H622.62V309.497H614.372V314.892H624.023V317.15Z" fill="white"/>
<path d="M617.88 258.061C613.055 258.061 609.942 254.353 609.942 249.243C609.942 244.109 613.079 240.401 617.904 240.401C622.159 240.401 624.797 243.111 625.201 246.51H622.468C622.159 244.846 621.113 242.659 617.857 242.659C614.101 242.659 612.675 245.844 612.675 249.219C612.675 252.618 614.101 255.803 617.857 255.803C621.137 255.803 622.301 253.617 622.468 251.549H625.201C624.821 255.328 622.159 258.061 617.88 258.061Z" fill="white"/>
<path d="M647.867 289.751C643.564 289.751 640.546 287.516 640.356 283.69H643.065C643.255 285.972 644.61 287.516 647.795 287.516C650.529 287.516 651.361 286.328 651.361 284.783C651.361 282.62 649.697 282.311 646.607 281.527C643.945 280.814 641.021 279.958 641.021 276.725C641.021 273.778 643.303 272.091 646.963 272.091C650.838 272.091 653.357 274.063 653.619 277.486H650.909C650.624 275.442 649.459 274.325 646.987 274.325C644.848 274.325 643.755 275.109 643.755 276.583C643.755 278.484 645.537 278.888 647.724 279.435C651.004 280.267 654.094 281.051 654.094 284.64C654.094 287.564 652.121 289.751 647.867 289.751Z" fill="white"/>
<path d="M642.637 317.15H639.88L646.203 300.156H649.031L655.401 317.15H652.549L651.147 313.062H644.04L642.637 317.15ZM647.581 302.58L644.824 310.852H650.41L647.629 302.58H647.581Z" fill="white"/>
<path d="M652.692 257.729H641.473V240.734H644.087V255.47H652.692V257.729Z" fill="white"/>
<path d="M677.759 289.418H675.145V272.423H677.759V289.418Z" fill="white"/>
<path d="M683.391 317.15H672.172V300.156H674.787V314.892H683.391V317.15Z" fill="white"/>
<path d="M676.71 258.061C671.624 258.061 668.367 254.33 668.367 249.219C668.367 244.109 671.624 240.401 676.71 240.401C681.797 240.401 685.053 244.109 685.053 249.219C685.053 254.33 681.797 258.061 676.71 258.061ZM676.71 255.803C680.727 255.803 682.32 252.713 682.32 249.219C682.32 245.725 680.727 242.659 676.71 242.659C672.693 242.659 671.101 245.725 671.101 249.219C671.101 252.713 672.693 255.803 676.71 255.803Z" fill="white"/>
<path d="M706.425 289.751C701.339 289.751 698.082 286.019 698.082 280.909C698.082 275.799 701.339 272.091 706.425 272.091C711.512 272.091 714.768 275.799 714.768 280.909C714.768 286.019 711.512 289.751 706.425 289.751ZM706.425 287.493C710.442 287.493 712.034 284.403 712.034 280.909C712.034 277.415 710.442 274.349 706.425 274.349C702.408 274.349 700.816 277.415 700.816 280.909C700.816 284.403 702.408 287.493 706.425 287.493Z" fill="white"/>
<path d="M707.47 317.15H704.856V300.156H707.47V317.15Z" fill="white"/>
<path d="M732.228 289.418H729.613V272.423H732.608L740.499 285.496H740.547V272.423H743.185V289.418H740.19L732.275 276.345H732.228V289.418Z" fill="white"/>
<path d="M736.411 317.15H733.773V302.414H728.282V300.156H741.902V302.414H736.411V317.15Z" fill="white"/>
<path d="M767.518 317.15H764.88V310.353L758.795 300.156H761.624L766.187 308.285H766.235L770.798 300.156H773.603L767.518 310.353V317.15Z" fill="white"/>
<path d="M703.509 257.729H700.895V240.734H707.978C711.186 240.734 713.54 242.231 713.54 245.797C713.54 249.362 711.186 250.836 707.978 250.836H703.509V257.729ZM703.509 248.578H707.859C709.832 248.578 710.83 247.698 710.83 245.797C710.83 243.871 709.832 242.992 707.859 242.992H703.509V248.578Z" fill="white"/>
<circle cx="613.54" cy="612.551" r="26.2446" stroke="white" stroke-width="1.98073"/>
</svg>
