<svg width="172" height="176" viewBox="0 0 172 176" fill="none" xmlns="http://www.w3.org/2000/svg">
<path d="M6.00001 22.0498L6.00001 147.995L16 155.162L16 161.05" stroke="#EC5151" stroke-width="2"/>
<rect x="12.5996" width="22.0493" height="12.5996" transform="rotate(90 12.5996 0)" fill="#EC5151"/>
<rect x="22.2002" y="161.875" width="12.1745" height="12.1745" transform="rotate(90 22.2002 161.875)" stroke="#EC5151" stroke-width="2"/>
<rect x="18.4756" y="166.387" width="2.36242" height="3.93737" transform="rotate(90 18.4756 166.387)" fill="#EC5151"/>
<rect x="12.9971" y="1" width="158" height="73" stroke="#EC5151" stroke-width="2"/>
<path d="M37.7971 30H31.4171V15.7H37.4371C40.3771 15.7 42.0971 17.02 42.0971 19.3C42.0971 21.06 41.0571 21.88 39.8771 22.28V22.32C41.3771 22.58 42.6571 23.68 42.6571 25.82C42.6571 28.56 40.7571 30 37.7971 30ZM33.6171 21.64H37.3771C39.1771 21.64 39.7971 20.9 39.7971 19.62C39.7971 18.36 39.0371 17.6 37.5371 17.6H33.6171V21.64ZM33.6171 28.1H37.6371C39.7571 28.1 40.3571 27.08 40.3571 25.74C40.3571 24.24 39.4371 23.38 37.9371 23.38H33.6171V28.1ZM49.5569 30H44.7569V15.7H46.9569V20.86H49.7569C52.6769 20.86 54.5169 22.48 54.5169 25.36C54.5169 28.22 52.5969 30 49.5569 30ZM58.2769 30H56.0769V15.7H58.2769V30ZM46.9569 22.76V28.1H49.6169C51.2169 28.1 52.2369 27.04 52.2369 25.36C52.2369 23.78 51.2969 22.76 49.7969 22.76H46.9569ZM67.1041 30.28C63.0441 30.28 60.4241 27.16 60.4241 22.86C60.4241 18.54 63.0641 15.42 67.1241 15.42C70.7041 15.42 72.9241 17.7 73.2641 20.56H70.9641C70.7041 19.16 69.8241 17.32 67.0841 17.32C63.9241 17.32 62.7241 20 62.7241 22.84C62.7241 25.7 63.9241 28.38 67.0841 28.38C69.8441 28.38 70.8241 26.54 70.9641 24.8H73.2641C72.9441 27.98 70.7041 30.28 67.1041 30.28ZM80.3207 30H78.1007V17.6H73.4807V15.7H84.9407V17.6H80.3207V30ZM88.8514 30H86.6514V15.7H92.6114C95.3114 15.7 97.2914 16.96 97.2914 19.96C97.2914 22.96 95.3114 24.2 92.6114 24.2H88.8514V30ZM88.8514 22.3H92.5114C94.1714 22.3 95.0114 21.56 95.0114 19.96C95.0114 18.34 94.1714 17.6 92.5114 17.6H88.8514V22.3ZM109.452 30H99.1319V15.7H109.252V17.6H101.332V21.66H108.272V23.56H101.332V28.1H109.452V30ZM111.595 30.3C111.115 30.3 110.435 30.22 110.135 30.06V28.16C110.415 28.26 110.855 28.36 111.255 28.36C112.255 28.36 112.815 27.9 112.875 26.22L113.315 15.7H122.055V30H119.855V17.6H115.415L114.995 26.18C114.855 29.36 113.555 30.3 111.595 30.3ZM127.094 30H124.894V15.7H127.094V26.64H127.134L134.554 15.7H136.774V30H134.554V19.08H134.514L127.094 30ZM145.34 30H143.12V17.6H138.5V15.7H149.96V17.6H145.34V30ZM157.191 30H151.671V15.7H153.871V20.86H157.391C160.311 20.86 162.151 22.48 162.151 25.36C162.151 28.22 160.231 30 157.191 30ZM153.871 22.76V28.1H157.231C158.851 28.1 159.851 27.04 159.851 25.36C159.851 23.78 158.911 22.76 157.411 22.76H153.871ZM37.7971 54H31.4171V39.7H37.4371C40.3771 39.7 42.0971 41.02 42.0971 43.3C42.0971 45.06 41.0571 45.88 39.8771 46.28V46.32C41.3771 46.58 42.6571 47.68 42.6571 49.82C42.6571 52.56 40.7571 54 37.7971 54ZM33.6171 45.64H37.3771C39.1771 45.64 39.7971 44.9 39.7971 43.62C39.7971 42.36 39.0371 41.6 37.5371 41.6H33.6171V45.64ZM33.6171 52.1H37.6371C39.7571 52.1 40.3571 51.08 40.3571 49.74C40.3571 48.24 39.4371 47.38 37.9371 47.38H33.6171V52.1ZM55.2566 54.28C50.9766 54.28 48.2366 51.14 48.2366 46.84C48.2366 42.54 50.9766 39.42 55.2566 39.42C59.5366 39.42 62.2766 42.54 62.2766 46.84C62.2766 51.14 59.5366 54.28 55.2566 54.28ZM55.2566 52.38C58.6366 52.38 59.9766 49.78 59.9766 46.84C59.9766 43.9 58.6366 41.32 55.2566 41.32C51.8766 41.32 50.5366 43.9 50.5366 46.84C50.5366 49.78 51.8766 52.38 55.2566 52.38ZM70.2049 54H64.4249V39.7H73.9849V41.6H66.6249V45H70.4049C73.3649 45 75.1649 46.58 75.1649 49.42C75.1649 52.24 73.2849 54 70.2049 54ZM66.6249 46.9V52.1H70.2649C71.8649 52.1 72.8649 51.08 72.8649 49.42C72.8649 47.9 71.9449 46.9 70.4449 46.9H66.6249ZM83.6858 54H78.1658V41.6H75.6858V39.7H80.3858V44.86H83.8858C86.8058 44.86 88.6458 46.48 88.6458 49.36C88.6458 52.22 86.7258 54 83.6858 54ZM80.3858 46.76V52.1H83.7458C85.3458 52.1 86.3458 51.04 86.3458 49.36C86.3458 47.78 85.4258 46.76 83.9258 46.76H80.3858ZM100.8 54H90.4796V39.7H100.6V41.6H92.6796V45.66H99.6196V47.56H92.6796V52.1H100.8V54ZM114.282 39.7L108.482 46.88L114.702 54H111.922L106.702 48H105.062V54H102.862V39.7H105.062V46.08H106.742L111.882 39.7H114.282ZM121.532 54H119.312V41.6H114.692V39.7H126.152V41.6H121.532V54ZM132.456 54H130.136L135.456 39.7H137.836L143.196 54H140.796L139.616 50.56H133.636L132.456 54ZM136.616 41.74L134.296 48.7H138.996L136.656 41.74H136.616Z" fill="#EC5151"/>
</svg>
