<svg width="386" height="393" viewBox="0 0 386 393" fill="none" xmlns="http://www.w3.org/2000/svg">
<rect x="1" y="31.3057" width="384" height="360.142" stroke="#EC5151" stroke-width="2"/>
<path d="M9.288 23.336C4.152 23.336 0.864 19.568 0.864 14.408C0.864 9.248 4.152 5.504 9.288 5.504C14.424 5.504 17.712 9.248 17.712 14.408C17.712 19.568 14.424 23.336 9.288 23.336ZM9.288 21.056C13.344 21.056 14.952 17.936 14.952 14.408C14.952 10.88 13.344 7.784 9.288 7.784C5.232 7.784 3.624 10.88 3.624 14.408C3.624 17.936 5.232 21.056 9.288 21.056ZM27.9459 23H20.2899V5.84H27.5139C31.0419 5.84 33.1059 7.424 33.1059 10.16C33.1059 12.272 31.8579 13.256 30.4419 13.736V13.784C32.2419 14.096 33.7779 15.416 33.7779 17.984C33.7779 21.272 31.4979 23 27.9459 23ZM22.9299 12.968H27.4419C29.6019 12.968 30.3459 12.08 30.3459 10.544C30.3459 9.032 29.4339 8.12 27.6339 8.12H22.9299V12.968ZM22.9299 20.72H27.7539C30.2979 20.72 31.0179 19.496 31.0179 17.888C31.0179 16.088 29.9139 15.056 28.1139 15.056H22.9299V20.72ZM40.0926 23.336C36.0366 23.336 34.9086 20.552 34.9086 17.648V16.952H37.4526V17.648C37.4526 19.616 37.7886 21.056 40.0446 21.056C42.2766 21.056 42.6606 19.616 42.6606 17.648V5.84H45.3006V17.648C45.3006 20.552 44.1486 23.336 40.0926 23.336ZM60.9864 23H48.6024V5.84H60.7464V8.12H51.2424V12.992H59.5704V15.272H51.2424V20.72H60.9864V23ZM70.2159 23.336C65.3439 23.336 62.1999 19.592 62.1999 14.432C62.1999 9.248 65.3679 5.504 70.2399 5.504C74.5359 5.504 77.1999 8.24 77.6079 11.672H74.8479C74.5359 9.992 73.4799 7.784 70.1919 7.784C66.3999 7.784 64.9599 11 64.9599 14.408C64.9599 17.84 66.3999 21.056 70.1919 21.056C73.5039 21.056 74.6799 18.848 74.8479 16.76H77.6079C77.2239 20.576 74.5359 23.336 70.2159 23.336ZM86.0758 23H83.4118V8.12H77.8678V5.84H91.6198V8.12H86.0758V23ZM103.45 23H100.666L107.05 5.84H109.906L116.338 23H113.458L112.042 18.872H104.866L103.45 23ZM108.442 8.288L105.658 16.64H111.298L108.49 8.288H108.442Z" fill="#EC5151"/>
</svg>
