<svg width="124" height="125" viewBox="0 0 124 125" fill="none" xmlns="http://www.w3.org/2000/svg">
<path fill-rule="evenodd" clip-rule="evenodd" d="M52.5046 94.2292C70.502 99.0516 89.0011 88.3712 93.8234 70.3738C98.6458 52.3764 87.9654 33.8773 69.968 29.0549C51.9706 24.2326 33.4715 34.913 28.6492 52.9104C23.8268 70.9078 34.5072 89.4068 52.5046 94.2292ZM54.173 88.8811C69.2107 92.9104 84.6675 83.9864 88.6969 68.9487C92.7262 53.911 83.8022 38.4542 68.7645 34.4249C53.7268 30.3955 38.27 39.3195 34.2407 54.3572C30.2113 69.3949 39.1354 84.8517 54.173 88.8811Z" fill="#ABFF00" fill-opacity="0.6"/>
<rect x="24.6182" y="45.2124" width="5.53906" height="24.0026" transform="rotate(105 24.6182 45.2124)" fill="#ABFF00" fill-opacity="0.6"/>
<rect width="5.53906" height="24.0026" transform="matrix(0.258819 0.965926 0.965926 -0.258819 98.6743 45.2124)" fill="#ABFF00" fill-opacity="0.6"/>
<rect x="23.1772" y="71.6699" width="5.53906" height="24.0026" transform="rotate(67.5105 23.1772 71.6699)" fill="#ABFF00" fill-opacity="0.6"/>
<rect width="5.53906" height="24.0026" transform="matrix(-0.382514 0.92395 0.92395 0.382514 100.115 71.6699)" fill="#ABFF00" fill-opacity="0.6"/>
<rect x="29.291" y="116.556" width="5.53906" height="24.0026" transform="rotate(-150 29.291 116.556)" fill="#ABFF00" fill-opacity="0.6"/>
<rect width="5.53906" height="24.0026" transform="matrix(0.866025 -0.5 -0.5 -0.866025 94.0015 116.556)" fill="#ABFF00" fill-opacity="0.6"/>
<rect width="5.53906" height="24.0026" transform="matrix(-0.866025 0.5 0.5 0.866025 29.291 8)" fill="#ABFF00" fill-opacity="0.6"/>
<rect x="94.0015" y="8" width="5.53906" height="24.0026" transform="rotate(30 94.0015 8)" fill="#ABFF00" fill-opacity="0.6"/>
<rect x="64.6338" y="124.138" width="5.54334" height="24.0212" transform="rotate(180 64.6338 124.138)" fill="#ABFF00" fill-opacity="0.6"/>
<rect x="64.6338" y="24.021" width="5.54334" height="24.0212" transform="rotate(180 64.6338 24.021)" fill="#ABFF00" fill-opacity="0.6"/>
</svg>
