<svg width="154" height="316" viewBox="0 0 154 316" fill="none" xmlns="http://www.w3.org/2000/svg">
<path fill-rule="evenodd" clip-rule="evenodd" d="M72.494 112.744C79.3781 125.168 83.2976 139.463 83.2976 154.673C83.2975 171.646 78.4168 187.479 69.9823 200.845L125.744 241.142C143.187 217.004 152.74 188.063 153.095 158.285C153.45 128.506 144.588 99.3459 127.724 74.7998L72.494 112.744Z" fill="#ABFF00"/>
<path fill-rule="evenodd" clip-rule="evenodd" d="M62.061 99.3058C46.9527 81.5947 24.8345 70.0449 -1.82727e-05 68.9503L-1.52588e-05 -2.16457e-06C22.7871 -1.16851e-06 45.2508 5.39304 65.5543 15.7382C85.8578 26.0833 103.425 41.0869 116.819 59.5221L62.061 99.3058Z" fill="#ABFF00"/>
<path fill-rule="evenodd" clip-rule="evenodd" d="M0.000471828 242.051L0.000468596 316.003C22.7876 316.003 45.2513 310.61 65.5548 300.265C85.8583 289.92 103.425 274.916 116.819 256.481L59.3506 214.728C44.367 230.717 23.3882 241.02 0.000471828 242.051Z" fill="#ABFF00"/>
</svg>
