<svg width="2173" height="377" viewBox="0 0 2173 377" fill="none" xmlns="http://www.w3.org/2000/svg">
<g clip-path="url(#clip0_325_31)">
<path d="M-36.8712 181.375L13.7797 582.097C16.1092 610.212 17.2736 626.197 20.7668 630.606C46.7714 661.473 116.712 736.327 188.438 788.801C278.096 854.394 310.699 872.584 397.446 919.987C466.843 957.91 529.604 983.191 552.309 991.092C571.405 1003 708.919 1042.35 775.289 1060.54C795.86 1065.5 838.166 1074.87 842.824 1072.67C847.481 1070.46 852.139 1061.83 853.885 1057.79C855.749 1042.79 864.365 1038.68 868.44 1038.5H1267.82H1334.2C1337.11 1039.05 1343.74 1041.25 1347 1045.66C1351.08 1051.17 1345.84 1049.52 1355.15 1061.09C1362.61 1070.35 1368.35 1071.57 1370.29 1071.02L1401.73 1066.06C1496.28 1055.03 1676.72 982.089 1755.12 946.996C1838.37 910.617 1918.72 852.74 1947.83 836.756C1971.11 823.968 2029.33 778.512 2055.53 757.383C2078.82 741.949 2148.3 672.314 2180.12 639.425C2188.04 631.929 2190.8 622.706 2191.18 619.031L2194.09 585.959L2217.96 383.117C2223.79 327.813 2236.59 210.812 2241.25 185.236C2245.91 159.66 2227.67 160.248 2217.96 163.739L2160.91 183.028C1907.65 254.133 1572.31 275.262 1378.44 291.063C987.207 322.95 499.329 265.708 392.788 253.582C307.554 243.88 113.336 204.353 15.5262 174.207C-9.50808 166.491 -39.1998 150.51 -36.8712 181.375Z" stroke="white" stroke-width="2"/>
</g>
<defs>
<clipPath id="clip0_325_31">
<rect width="2173" height="377" fill="white"/>
</clipPath>
</defs>
</svg>
